HIERARCHY
ROOT Hips
{
	OFFSET -3.958830 18.904000 13.208200
	CHANNELS 6 Xposition Yposition Zposition Zrotation Yrotation Xrotation 
	JOINT LHipJoint
	{
		OFFSET 0.000000 0.000000 0.000000
		CHANNELS 3 Zrotation Yrotation Xrotation
		JOINT LeftUpLeg
		{
			OFFSET 1.800000 -1.400000 0.085000
			CHANNELS 3 Zrotation Yrotation Xrotation
			JOINT LeftLeg
			{
				OFFSET 2.215000 -6.000000 0.000000
				CHANNELS 3 Zrotation Yrotation Xrotation
				JOINT LeftFoot
				{
					OFFSET 2.500000 -6.900000 0.000000
					CHANNELS 3 Zrotation Yrotation Xrotation
					JOINT LeftToeBase
					{
						OFFSET 0.200000 -0.500000 1.950000
						CHANNELS 3 Zrotation Yrotation Xrotation
						End Site
						{
							OFFSET 0.000000 0.000000 0.000000
						}
					}
				}
			}
		}
	}
	JOINT RHipJoint
	{
		OFFSET 0.000000 0.000000 0.000000
		CHANNELS 3 Zrotation Yrotation Xrotation
		JOINT RightUpLeg
		{
			OFFSET -1.800000 -1.400000 0.085000
			CHANNELS 3 Zrotation Yrotation Xrotation
			JOINT RightLeg
			{
				OFFSET -2.215000 -6.000000 0.000000
				CHANNELS 3 Zrotation Yrotation Xrotation
				JOINT RightFoot
				{
					OFFSET -2.500000 -6.900000 0.000000
					CHANNELS 3 Zrotation Yrotation Xrotation
					JOINT RightToeBase
					{
						OFFSET -0.200000 -0.500000 1.950000
						CHANNELS 3 Zrotation Yrotation Xrotation
						End Site
						{
							OFFSET 0.000000 0.000000 0.000000
						}
					}
				}
			}
		}
	}
	JOINT LowerBack
	{
		OFFSET 0.000000 0.000000 0.000000
		CHANNELS 3 Zrotation Yrotation Xrotation
		JOINT Spine
		{
			OFFSET -0.087000 1.940000 -0.288900
			CHANNELS 3 Zrotation Yrotation Xrotation
			JOINT Spine1
			{
				OFFSET 0.000000 1.950000 0.060000
				CHANNELS 3 Zrotation Yrotation Xrotation
				JOINT Neck
				{
					OFFSET 0.000000 0.000000 0.000000
					CHANNELS 3 Zrotation Yrotation Xrotation
					JOINT Neck1
					{
						OFFSET 0.000000 1.600000 0.340000
						CHANNELS 3 Zrotation Yrotation Xrotation
						JOINT Head
						{
							OFFSET 0.000000 1.667000 -0.240000
							CHANNELS 3 Zrotation Yrotation Xrotation
							End Site
							{
								OFFSET 0.000000 0.000000 0.000000
							}
						}
					}
				}
				JOINT LeftShoulder
				{
					OFFSET 0.000000 0.000000 0.000000
					CHANNELS 3 Zrotation Yrotation Xrotation
					JOINT LeftArm
					{
						OFFSET 2.700000 1.550000 -0.730000
						CHANNELS 3 Zrotation Yrotation Xrotation
						JOINT LeftForeArm
						{
							OFFSET 5.450000 0.000000 0.000000
							CHANNELS 3 Zrotation Yrotation Xrotation
							JOINT LeftHand
							{
								OFFSET 3.450000 0.000000 0.000000
								CHANNELS 3 Zrotation Yrotation Xrotation
								JOINT LeftHandIndex1
								{
									OFFSET 0.750000 0.000000 0.000000
									CHANNELS 3 Zrotation Yrotation Xrotation
									End Site
									{
										OFFSET 0.000000 0.000000 0.000000
									}
								}
							}
						}
					}
				}
				JOINT RightShoulder
				{
					OFFSET 0.000000 0.000000 0.000000
					CHANNELS 3 Zrotation Yrotation Xrotation
					JOINT RightArm
					{
						OFFSET -2.700000 1.550000 -0.730000
						CHANNELS 3 Zrotation Yrotation Xrotation
						JOINT RightForeArm
						{
							OFFSET -5.450000 0.000000 0.000000
							CHANNELS 3 Zrotation Yrotation Xrotation
							JOINT RightHand
							{
								OFFSET -3.450000 0.000000 0.000000
								CHANNELS 3 Zrotation Yrotation Xrotation
								JOINT RightHandIndex1
								{
									OFFSET -0.750000 0.000000 0.000000
									CHANNELS 3 Zrotation Yrotation Xrotation
									End Site
									{
										OFFSET 0.000000 0.000000 0.000000
									}
								}
							}
						}
					}
				}
			}
		}
	}
}
MOTION
Frames: 14
Frame Time: 0.016667
0.005090 16.418300 -1.229250 -1.434889 3.527554 -3.718412 -15.084804 13.146551 2.990184 2.847505 -0.329381 -5.544460 -6.357968 4.392981 3.676032 -0.825344 4.593087 3.424158 0.338350 0.226840 -0.067800 18.369187 -11.235826 2.396600 -3.729561 1.567216 -14.133555 4.641990 -5.699837 23.781451 0.103118 -4.852631 2.742778 0.639180 1.156580 0.291400 -3.907515 -1.010254 -7.016471 9.173343 -2.010147 11.473690 -3.997420 -1.150984 8.777138 -0.034199 -1.121141 -5.406785 -1.678388 1.713638 20.554422 -3.851030 -1.342660 2.712450 8.442443 -4.308787 -2.102410 15.383968 -28.822374 -3.441808 56.691759 -10.879761 -7.747066 -4.845548 3.400936 -0.300330 0.943950 -0.756760 0.377080 -8.079531 5.550942 1.350583 -14.355970 18.522202 -5.756603 -63.780226 13.381540 -10.842417 1.914332 -2.529089 -0.465870 0.486940 0.160460 0.047880 
0.010710 16.423560 -1.251820 -1.652970 3.346532 -4.552353 -15.068747 13.173357 2.968657 2.971003 -0.251651 -5.101687 -5.995324 4.423823 4.112729 -0.847883 4.637303 3.406915 0.336550 0.231710 -0.077660 18.376010 -11.276611 2.404367 -3.775891 1.658617 -13.937817 4.791630 -6.037626 25.410900 0.073514 -5.091335 2.650119 0.657760 1.175420 0.296770 -3.939575 -0.972599 -7.035913 9.637351 -2.134189 12.618887 -4.153647 -1.187852 8.967283 -0.011838 -1.106734 -5.290494 -1.591564 2.029790 20.222365 -3.910530 -1.087910 2.746260 9.252344 -3.931136 -2.309799 13.584290 -29.791534 -3.012398 57.028423 -11.528603 -8.286436 -4.875919 3.415407 -0.313550 0.965870 -0.772970 0.374080 -8.915267 5.210001 1.194693 -12.782281 19.595020 -5.523928 -63.571697 14.334086 -11.574101 1.886236 -2.546244 -0.475420 0.494110 0.175770 0.045900 
0.017650 16.431680 -1.294460 -2.104086 3.200492 -5.975971 -15.053654 13.212685 2.926451 3.357084 -0.132219 -4.381368 -5.510366 4.495553 4.803753 -0.882925 4.747419 3.376047 0.344980 0.262360 -0.083360 18.380315 -11.322017 2.425920 -3.698548 1.852736 -13.538429 5.064465 -6.656563 28.319781 0.011845 -5.558017 2.473629 0.712600 1.226000 0.314640 -3.967477 -0.927313 -7.066195 10.284109 -2.375540 14.700060 -4.104949 -1.346325 9.245244 0.086768 -1.012099 -4.941800 -1.265790 2.420220 19.199095 -4.344740 -0.685390 2.825190 11.105566 -2.784469 -2.943080 9.143434 -32.351162 -1.760893 57.835174 -12.400565 -9.300805 -4.958484 3.442566 -0.361620 1.027750 -0.803950 0.378390 -10.874647 4.197657 0.793327 -9.276885 21.975156 -4.755504 -63.369773 16.271829 -13.135217 1.827248 -2.594116 -0.490630 0.519440 0.190840 0.050740 
0.023090 16.437190 -1.341760 -2.348577 3.219985 -6.774436 -15.056191 13.243286 2.881866 3.350974 -0.118484 -4.366867 -5.003626 4.508270 5.565639 -0.912263 4.769016 3.364566 0.356400 0.280440 -0.061190 18.374021 -11.320570 2.458250 -3.809980 2.236860 -13.985082 5.472240 -7.484414 31.977882 -0.072923 -6.100230 2.266390 0.743340 1.239890 0.331880 -3.957605 -0.945700 -7.085460 10.525516 -2.436767 15.950346 -3.867019 -1.435427 9.344861 0.250354 -0.895164 -4.566178 -0.984214 2.416791 18.612438 -4.959350 -0.379830 2.974940 12.140994 -1.756183 -3.516905 4.675707 -34.964225 0.021778 57.719254 -14.903038 -10.669594 -4.990495 3.451436 -0.397550 1.067700 -0.819050 0.368010 -12.162123 3.254533 0.385461 -5.346794 24.125344 -3.488161 -62.669965 19.305357 -14.851966 1.765514 -2.613363 -0.489950 0.519710 0.194300 0.042800 
0.027470 16.442640 -1.387250 -2.600714 2.895568 -6.942852 -15.030988 13.199674 2.825631 3.207062 -0.190657 -4.833434 -4.583490 4.457186 6.176632 -0.953311 4.734596 3.385114 0.352470 0.266560 -0.064350 18.403993 -11.325216 2.529680 -3.598071 2.867945 -15.114532 5.349547 -8.207724 36.143156 -0.184443 -6.676201 2.073032 0.742620 1.266150 0.343420 -4.031988 -0.811039 -7.100390 11.177095 -2.526600 16.166889 -4.015605 -1.563189 9.319833 0.363925 -0.881397 -4.250545 -0.917585 2.429552 18.697361 -5.235950 -0.272530 3.145890 12.288414 -1.212678 -3.832649 0.752918 -36.294240 2.049556 56.407485 -19.018175 -12.118025 -4.971610 3.414248 -0.390330 1.092410 -0.828370 0.375100 -12.486546 2.753460 0.046598 -1.742942 26.386865 -2.035564 -60.758284 23.020380 -16.258954 1.679994 -2.564297 -0.503520 0.535370 0.203580 0.036860 
0.022590 16.445240 -1.429160 -2.707853 2.577185 -6.779729 -15.021642 13.153498 2.772601 2.894641 -0.296775 -5.638457 -4.179449 4.396018 6.837878 -0.983962 4.632856 3.401798 0.346950 0.281610 -0.052730 18.422516 -11.307193 2.616837 -3.148252 3.526598 -16.291219 4.773801 -8.669659 40.150504 -0.291936 -7.207751 1.879322 0.755790 1.252310 0.333810 -4.065479 -0.707913 -7.119500 11.458149 -2.355840 16.097768 -4.312582 -1.475324 9.089296 0.722158 -0.648142 -4.010657 -0.493505 2.152860 18.656288 -5.703270 -0.027090 3.172240 12.484983 -0.565311 -4.431642 -3.282700 -38.435207 4.419665 53.927029 -23.442674 -13.235137 -4.933448 3.372493 -0.409270 1.100880 -0.824500 0.355550 -13.369462 2.035087 -0.005649 3.651242 27.775361 0.036323 -59.340175 27.921540 -18.105513 1.598938 -2.509302 -0.501400 0.537190 0.204280 0.031290 
0.013820 16.446230 -1.467000 -3.157401 2.292325 -5.881558 -15.006930 13.099134 2.696245 3.096939 -0.557943 -7.276619 -4.018893 4.367939 7.659542 -1.028721 4.534714 3.428324 0.329320 0.254190 -0.052210 18.448232 -11.250941 2.737580 -2.494774 4.239408 -17.866406 4.315846 -9.089982 43.562500 -0.395895 -7.671381 1.727763 0.739010 1.257130 0.337280 -4.115812 -0.635548 -7.132341 12.168950 -2.168474 15.069634 -4.473185 -1.367587 8.438997 1.027116 -0.468274 -3.787385 -0.242283 1.795730 19.072223 -6.086100 0.071300 3.460200 11.592554 -0.374777 -4.862704 -6.675755 -40.015813 6.780099 50.053948 -28.492516 -13.726460 -4.880260 3.306681 -0.399390 1.110680 -0.824510 0.349040 -13.127686 1.617735 -0.053250 7.715634 28.327246 1.869496 -56.085355 33.764658 -18.971186 1.484728 -2.398127 -0.510390 0.540510 0.213210 0.021940 
0.011760 16.447390 -1.497990 -3.507206 1.814390 -4.537003 -14.973449 13.014101 2.632010 3.310256 -0.878764 -9.247287 -4.042744 4.349010 8.440592 -1.066201 4.415728 3.463106 0.315920 0.210680 -0.046780 18.493826 -11.213672 2.830136 -2.288599 4.782218 -19.442546 4.059458 -9.450838 45.828139 -0.481160 -7.972322 1.648453 0.696410 1.245980 0.342350 -4.219891 -0.509908 -7.112464 13.280730 -1.968158 13.108251 -5.148713 -1.250792 7.869264 1.295402 -0.477460 -3.580678 -0.392662 1.545535 20.193508 -6.287900 0.131730 3.590830 9.190212 -1.043268 -4.888743 -8.344889 -40.291721 8.006773 44.898003 -33.414359 -13.215631 -4.794335 3.218899 -0.349320 1.096460 -0.805310 0.352670 -11.389630 1.905425 -0.079227 10.066457 28.019648 2.850471 -51.190363 40.004212 -18.609986 1.362017 -2.234311 -0.517550 0.538690 0.213070 0.005950 
0.004870 16.447890 -1.538060 -3.754399 0.989994 -3.824974 -14.938741 12.972104 2.592703 3.404536 -1.107678 -10.762335 -3.862482 4.371291 9.575293 -1.074102 4.304679 3.477910 0.327020 0.217030 -0.007300 18.527680 -11.249656 2.878261 -1.737681 5.037223 -19.799940 3.234202 -9.172899 46.815018 -0.524006 -8.021554 1.635187 0.677350 1.198460 0.341550 -4.303526 -0.352993 -7.086968 14.182447 -1.726979 12.194648 -5.727931 -0.996443 7.736377 1.599301 -0.573878 -3.612983 -0.566956 1.473418 20.778164 -6.662140 0.524650 3.307700 7.750985 -1.597322 -4.840147 -10.605965 -39.772165 8.893449 39.716375 -37.873189 -12.366999 -4.706070 3.174087 -0.323380 1.068160 -0.766670 0.342360 -10.648115 2.444741 0.135045 12.961388 27.559088 3.284769 -45.740594 44.921228 -17.614571 1.280250 -2.126379 -0.500150 0.521360 0.190870 -0.007870 
-0.006280 16.443490 -1.575100 -3.910335 -0.199521 -2.949264 -14.892130 12.925762 2.578099 3.285788 -1.376192 -12.548711 -3.556336 4.404960 11.092078 -1.069647 4.201402 3.493109 0.315770 0.221240 0.012300 18.565339 -11.359273 2.900464 -0.698239 5.078287 -19.673374 1.643666 -8.064457 46.228982 -0.472180 -7.766525 1.709685 0.669730 1.177110 0.340620 -4.402784 -0.072654 -7.035925 14.977582 -1.327977 11.310169 -6.353549 -0.627546 7.319006 1.902695 -0.639858 -3.683780 -0.559947 1.685976 20.741695 -7.156970 1.293600 3.685640 7.108087 -1.395716 -4.934606 -14.068798 -39.237879 10.306955 34.129608 -42.564945 -11.125528 -4.659628 3.187317 -0.351810 1.071390 -0.755950 0.325680 -10.675345 2.457609 0.349608 17.298980 27.758029 4.232844 -39.803343 48.818713 -16.120683 1.229639 -2.098673 -0.483970 0.496040 0.175510 -0.007380 
-0.026500 16.433340 -1.606460 -3.956497 -1.511945 -1.340718 -14.862112 12.868580 2.610403 3.519814 -1.789304 -15.242624 -3.899504 4.638366 12.939646 -1.082669 4.194129 3.481271 0.302850 0.187490 0.027340 18.590030 -11.435213 2.882901 0.134787 4.953484 -19.751834 0.066603 -6.717748 43.907441 -0.361950 -7.230660 1.901947 0.639130 1.172080 0.347020 -4.457620 0.134011 -6.955602 15.218714 -0.656844 9.556895 -6.432997 -0.072850 6.530947 2.033446 -0.677642 -3.685503 -0.587816 1.849345 21.022587 -7.556210 1.927430 4.063980 5.227290 -1.475953 -4.778211 -15.521002 -37.537661 10.707148 26.619214 -47.995901 -8.830004 -4.616652 3.228824 -0.333580 1.074790 -0.751780 0.322490 -9.153323 2.636037 0.470608 19.409968 27.098293 4.697007 -30.923982 52.156175 -12.676371 1.202437 -2.104672 -0.489050 0.481040 0.169450 -0.022840 
-0.050960 16.420310 -1.642670 -3.792641 -3.044589 -0.277466 -14.846219 12.842776 2.681160 3.637242 -2.122787 -17.513149 -4.239903 5.013939 15.180052 -1.052647 4.295927 3.429788 0.261050 0.153800 0.016750 18.593434 -11.541997 2.823825 0.932923 4.474664 -18.974772 -1.775040 -5.211143 40.465635 -0.215683 -6.567136 2.130590 0.615800 1.186760 0.344060 -4.456728 0.308375 -6.888935 14.770322 -0.000373 8.594083 -6.144184 0.509301 6.107210 2.130741 -0.632118 -3.918970 -0.427690 2.133209 20.960950 -7.773010 2.613310 4.546460 4.776388 -1.096309 -4.566021 -18.548744 -36.066498 11.518286 18.189723 -51.957507 -5.636286 -4.605472 3.305082 -0.354230 1.089360 -0.754510 0.311380 -8.909259 2.567464 0.749709 22.575959 27.018441 5.576796 -22.169971 53.089284 -8.916579 1.226703 -2.147614 -0.495020 0.480770 0.175980 -0.015840 
-0.081590 16.408950 -1.679900 -3.556727 -4.533778 0.765935 -14.841185 12.791961 2.782085 4.272089 -2.481081 -19.990553 -5.098163 5.705680 17.952008 -0.993657 4.549357 3.313556 0.257570 0.136270 0.035490 18.594758 -11.597459 2.740091 1.096811 3.910266 -18.134846 -2.527517 -4.385985 36.598927 -0.106836 -5.926064 2.376838 0.583590 1.157870 0.328960 -4.442370 0.407812 -6.832972 14.213386 0.691573 7.536405 -5.813977 1.188239 5.982722 2.083312 -0.727079 -4.231786 -0.582642 2.163493 21.271597 -7.742930 2.857700 4.363300 2.944534 -1.691855 -3.927189 -18.777438 -33.329152 10.782657 8.081858 -55.377852 -1.177520 -4.554206 3.381636 -0.317150 1.056360 -0.727220 0.314050 -7.041821 3.337444 1.138448 22.810236 25.415727 5.270142 -12.414580 54.584521 -4.623729 1.277388 -2.171006 -0.494770 0.479510 0.155580 -0.024550 
-0.114450 16.403970 -1.716180 -3.082060 -5.925448 1.517017 -14.861138 12.748954 2.930834 4.768158 -2.897108 -22.424315 -5.934746 6.612983 21.389185 -0.923111 4.988326 3.116022 0.215460 0.066990 0.030280 18.582923 -11.585569 2.622328 0.858931 3.228342 -16.969062 -2.788153 -3.919803 32.504664 -0.005922 -5.326585 2.605703 0.520100 1.116430 0.300010 -4.380409 0.332061 -6.794816 13.466867 1.373896 6.672082 -5.283470 1.929471 6.058919 1.843427 -1.085373 -4.542417 -1.299409 2.070760 21.953599 -7.748950 2.821110 3.993970 0.202378 -2.728510 -3.105250 -18.057624 -30.464224 9.750636 -2.837402 -56.486385 4.136622 -4.523277 3.402446 -0.246550 1.002000 -0.704100 0.286800 -3.925772 4.539425 1.493752 20.589492 22.723976 4.341118 -1.391435 56.468820 0.540234 1.359826 -2.165185 -0.511860 0.478220 0.174070 -0.048850 
